<?xml version="1.0" standalone="no"?>
<!DOCTYPE svg PUBLIC "-//W3C//DTD SVG 20010904//EN"
 "http://www.w3.org/TR/2001/REC-SVG-20010904/DTD/svg10.dtd">
<svg version="1.0" xmlns="http://www.w3.org/2000/svg"
 width="864.000000pt" height="864.000000pt" viewBox="0 0 864.000000 864.000000"
 preserveAspectRatio="xMidYMid meet">

<g transform="translate(0.000000,864.000000) scale(0.100000,-0.100000)"
fill="#000000" stroke="none">
<path d="M5270 7043 c-84 -11 -150 -28 -199 -52 -78 -38 -105 -54 -114 -68 -4
-7 -12 -13 -18 -13 -19 0 -107 -95 -190 -205 -46 -60 -124 -162 -173 -226 -50
-64 -100 -128 -111 -143 -11 -15 -29 -38 -40 -50 -11 -13 -29 -36 -40 -51 -11
-16 -49 -65 -83 -109 -35 -45 -77 -100 -93 -123 l-30 -42 -992 -3 -992 -3 -72
-26 c-106 -39 -159 -73 -238 -153 -76 -77 -132 -175 -156 -276 -12 -45 -14
-350 -14 -1695 0 -1564 1 -1643 18 -1700 65 -212 225 -367 432 -420 89 -23
2441 -23 2530 0 205 52 363 204 431 415 15 47 18 104 22 385 l4 329 25 26 c14
14 62 72 107 130 44 58 85 111 91 118 5 7 18 22 28 33 9 10 17 22 17 25 0 5
68 93 103 133 15 18 47 62 67 92 8 12 27 36 41 53 14 17 84 108 154 201 71 94
133 175 137 180 36 46 136 177 148 195 8 13 23 32 32 44 10 11 56 71 103 131
47 61 95 121 107 135 11 14 57 72 101 130 45 58 87 112 94 120 12 13 54 69
111 149 9 13 25 33 34 45 72 90 114 144 179 231 42 55 105 138 140 185 81 107
99 145 99 211 0 110 -68 171 -207 185 -40 3 -73 10 -73 13 0 4 27 43 61 86 33
44 71 93 82 108 12 16 38 50 58 75 58 75 79 124 79 187 0 107 -70 170 -200
182 -83 7 -85 9 -58 41 12 16 32 41 43 57 11 15 55 72 97 126 103 130 118 160
118 232 0 46 -5 66 -27 98 -36 55 -84 77 -195 89 -51 5 -145 17 -208 25 -157
21 -348 43 -510 61 -74 8 -142 16 -150 19 -8 2 -85 11 -170 20 -85 9 -162 18
-170 20 -8 3 -80 11 -160 20 -80 8 -154 16 -165 18 -11 2 -31 2 -45 0z m94
-183 c60 -6 112 -12 115 -14 3 -2 51 -9 106 -15 169 -19 434 -51 550 -67 61
-8 155 -19 210 -24 54 -6 126 -15 160 -20 33 -5 106 -14 161 -19 129 -12 164
-28 164 -77 0 -30 -29 -84 -60 -114 -5 -4 -31 -38 -82 -105 -72 -93 -114 -147
-138 -177 -17 -20 -30 -39 -30 -42 0 -3 -7 -14 -15 -23 -32 -36 -232 -296
-571 -743 -115 -151 -178 -233 -189 -247 -5 -6 -18 -22 -28 -35 -9 -13 -37
-48 -60 -78 -24 -30 -70 -91 -103 -135 -32 -44 -94 -124 -136 -178 -43 -53
-78 -99 -78 -102 0 -3 -7 -13 -16 -22 -8 -10 -50 -62 -92 -117 l-77 -98 -6
528 c-6 582 -5 572 -71 704 -38 75 -148 193 -221 234 -101 59 -179 78 -339 84
l-148 5 33 39 c17 22 37 47 42 56 6 10 13 19 17 22 3 3 35 43 70 90 179 238
368 482 409 526 10 12 19 24 19 27 0 4 21 29 47 58 69 75 127 101 203 94 25
-3 94 -10 154 -15z m1435 -824 c26 -14 31 -22 31 -52 0 -23 -10 -48 -27 -72
-16 -20 -31 -41 -35 -47 -5 -5 -36 -46 -71 -90 -35 -44 -97 -125 -138 -180
-136 -181 -174 -230 -186 -238 -7 -4 -13 -12 -13 -17 0 -6 -7 -18 -15 -27 -26
-29 -93 -117 -260 -338 -247 -326 -249 -330 -262 -338 -7 -4 -13 -12 -13 -17
0 -6 -7 -18 -16 -27 -14 -16 -74 -93 -232 -299 -131 -171 -212 -278 -277 -364
-38 -51 -78 -100 -87 -108 -10 -9 -18 -22 -18 -28 0 -7 -7 -14 -15 -18 -13 -5
-15 18 -15 169 0 132 3 176 13 182 18 11 147 173 147 184 0 5 6 9 13 9 6 0 23
16 36 36 13 19 52 70 85 113 34 43 70 90 81 106 27 38 170 225 192 251 10 12
25 31 33 44 8 12 44 59 80 104 36 45 74 95 85 110 11 16 28 38 37 50 82 103
107 136 124 161 10 16 26 37 34 46 8 8 22 26 30 39 8 12 26 36 40 53 34 41
224 288 366 476 l116 154 53 -6 c29 -3 67 -13 84 -21z m-2139 -427 c60 -27
107 -74 136 -134 l24 -50 0 -1605 c0 -1075 -4 -1617 -10 -1642 -16 -57 -70
-120 -130 -153 l-55 -30 -1195 0 -1195 0 -55 30 c-61 34 -114 97 -130 154 -7
27 -9 560 -8 1653 l3 1613 22 40 c28 53 78 99 133 124 44 20 60 21 1230 21
1170 0 1186 -1 1230 -21z m2143 -226 c22 -11 27 -20 27 -49 0 -31 -19 -61
-122 -198 -315 -415 -396 -522 -413 -543 -13 -14 -27 -33 -125 -161 -44 -57
-85 -109 -92 -116 -7 -8 -44 -55 -83 -106 -38 -50 -104 -136 -145 -189 -41
-54 -84 -110 -95 -125 -11 -16 -27 -35 -35 -44 -8 -8 -22 -25 -30 -38 -8 -12
-63 -85 -121 -161 -58 -76 -142 -186 -187 -245 -45 -59 -103 -136 -129 -170
-27 -35 -54 -67 -60 -71 -7 -4 -13 -14 -13 -21 0 -8 -7 -16 -15 -20 -13 -5
-15 18 -15 169 0 137 3 176 14 182 11 6 171 205 240 298 9 11 45 58 82 105 37
47 74 96 83 110 21 33 26 39 59 80 16 19 60 76 97 125 38 50 81 106 97 125 38
47 148 190 173 225 11 15 28 36 37 46 9 10 21 26 26 36 9 16 76 104 130 169 9
12 24 32 32 44 8 13 27 37 41 54 14 17 70 90 124 161 54 72 108 142 119 156
12 14 29 36 39 50 9 13 38 52 63 86 l46 63 61 -7 c34 -3 74 -12 90 -20z"/>
<path d="M2563 5201 c-80 -20 -155 -85 -188 -164 -22 -53 -22 -790 0 -843 25
-61 73 -112 133 -141 l57 -28 865 0 865 0 57 28 c33 16 70 45 88 67 60 76 60
73 60 498 l0 388 -26 52 c-28 56 -63 90 -128 125 l-41 22 -855 2 c-470 0 -869
-2 -887 -6z m1617 -586 l0 -265 -750 0 -750 0 0 265 0 265 750 0 750 0 0 -265z"/>
<path d="M2553 3696 c-125 -41 -192 -131 -192 -261 -1 -109 68 -210 172 -250
57 -22 155 -17 211 10 202 97 198 397 -6 485 -64 27 -132 33 -185 16z"/>
<path d="M3358 3696 c-51 -14 -64 -22 -121 -75 -123 -115 -92 -328 61 -419 41
-24 57 -27 132 -27 75 0 91 3 132 27 158 94 184 306 52 428 -25 23 -60 48 -78
55 -50 21 -126 26 -178 11z"/>
<path d="M4165 3697 c-93 -31 -140 -71 -177 -152 -23 -50 -23 -52 -23 -485 0
-424 1 -436 22 -482 82 -179 319 -213 449 -65 22 25 46 63 52 85 18 59 16 884
-2 934 -44 123 -202 204 -321 165z"/>
<path d="M2553 2946 c-124 -40 -193 -135 -193 -265 1 -228 287 -348 451 -189
107 104 111 265 11 380 -59 67 -185 101 -269 74z"/>
<path d="M3358 2946 c-51 -14 -64 -22 -121 -75 -127 -120 -88 -344 75 -425
177 -88 388 45 388 245 0 94 -76 208 -164 244 -50 21 -126 26 -178 11z"/>
</g>
</svg>
