<?xml version="1.0" standalone="no"?>
<!DOCTYPE svg PUBLIC "-//W3C//DTD SVG 20010904//EN"
 "http://www.w3.org/TR/2001/REC-SVG-20010904/DTD/svg10.dtd">
<svg version="1.0" xmlns="http://www.w3.org/2000/svg"
 width="864.000000pt" height="864.000000pt" viewBox="0 0 864.000000 864.000000"
 preserveAspectRatio="xMidYMid meet">

<g transform="translate(0.000000,864.000000) scale(0.100000,-0.100000)"
fill="#000000" stroke="none">
<path d="M4925 6047 c-154 -262 -303 -465 -466 -632 l-108 -111 65 -20 65 -20
92 95 c136 141 301 362 416 557 l42 72 157 -85 c244 -132 542 -293 597 -323
28 -15 115 -62 195 -105 80 -43 147 -79 149 -81 8 -7 -106 -205 -177 -309
-103 -151 -179 -243 -293 -356 -133 -132 -251 -218 -404 -294 -150 -75 -267
-111 -412 -128 l-103 -11 0 -58 0 -58 40 0 c22 0 40 -4 40 -10 0 -17 73 -57
127 -70 60 -14 69 -22 86 -81 15 -52 64 -85 141 -95 40 -6 52 -12 65 -36 19
-34 47 -33 43 2 -4 41 -38 67 -96 74 -66 9 -116 38 -116 68 0 46 -36 86 -91
102 -29 9 -57 16 -63 16 -6 0 -22 9 -35 19 l-24 18 54 7 c83 11 206 44 287 78
68 28 74 29 96 14 13 -8 27 -30 31 -48 4 -18 12 -39 18 -46 20 -25 86 -52 127
-52 39 0 80 -26 80 -50 0 -5 9 -10 20 -10 24 0 25 11 6 49 -17 33 -54 51 -104
51 -50 0 -98 31 -107 69 -3 16 -15 41 -26 55 l-20 25 43 22 c168 85 419 304
569 498 l27 34 108 -58 c60 -31 113 -61 118 -65 11 -11 -57 -135 -160 -290
-238 -360 -533 -617 -846 -734 -91 -34 -246 -65 -348 -68 l-85 -4 -3 -61 -3
-61 33 1 c18 0 75 4 126 8 79 8 97 6 118 -7 13 -9 45 -21 71 -25 58 -11 78
-29 92 -83 15 -60 41 -75 171 -101 14 -2 32 -18 43 -36 14 -26 20 -29 32 -19
13 11 13 16 0 40 -20 39 -53 60 -93 60 -18 0 -50 9 -71 20 -33 16 -40 26 -46
59 -10 58 -66 101 -131 101 -13 0 -24 5 -24 10 0 6 7 10 16 10 27 0 189 57
269 95 92 44 111 41 126 -20 6 -24 19 -51 28 -59 24 -21 97 -46 137 -46 25 0
38 -7 54 -30 26 -37 40 -38 40 -5 0 40 -38 71 -97 78 -75 9 -110 30 -122 73
-6 20 -18 45 -28 57 -13 14 -15 21 -6 24 7 3 52 32 100 66 116 83 300 262 407
396 l88 110 31 -18 c18 -10 77 -42 132 -71 55 -29 102 -55 103 -56 6 -4 -102
-193 -166 -290 -165 -251 -396 -484 -607 -614 -226 -139 -461 -200 -712 -186
l-113 7 0 -60 0 -59 67 -8 c263 -28 578 50 824 205 251 158 494 410 681 708
79 125 180 320 176 340 -2 8 -21 25 -43 37 -22 12 -85 46 -140 75 -55 30 -114
62 -132 73 l-32 19 56 92 c31 51 78 137 104 192 41 84 46 102 34 111 -8 6 -79
46 -159 89 l-145 78 38 56 c84 125 231 397 219 406 -2 1 -32 18 -68 37 -36 19
-90 49 -120 65 -167 91 -921 499 -1010 546 l-105 56 -60 -102z"/>
<path d="M5415 5533 c-52 -35 -324 -146 -341 -139 -19 7 -17 -19 2 -35 14 -11
26 -10 77 8 53 18 65 20 86 8 15 -7 52 -21 83 -30 56 -18 57 -19 50 -49 -13
-57 -8 -121 8 -121 10 0 16 12 18 35 4 58 53 273 69 303 13 25 11 47 -5 47 -4
0 -25 -12 -47 -27z m-9 -90 c-13 -72 -16 -76 -46 -69 -16 3 -46 13 -67 22
l-38 16 70 34 c38 19 74 34 78 34 5 0 6 -17 3 -37z"/>
<path d="M5615 5369 c-7 -21 -12 -21 -60 -4 -16 5 -15 3 5 -14 22 -17 23 -23
13 -40 -20 -32 -15 -37 10 -13 21 20 25 20 43 7 22 -16 34 -19 34 -7 0 5 -11
15 -25 22 -23 13 -24 15 -10 36 17 27 19 34 6 34 -5 0 -13 -9 -16 -21z"/>
<path d="M4630 5282 c0 -13 16 -23 63 -38 58 -19 62 -22 67 -54 3 -20 15 -40
31 -52 28 -21 156 -58 200 -58 22 0 30 -6 39 -35 16 -48 73 -93 129 -101 73
-11 95 -26 109 -79 11 -42 17 -48 65 -70 28 -14 68 -25 87 -25 27 0 41 -7 61
-31 15 -19 31 -29 37 -25 20 12 13 36 -17 67 -22 22 -39 29 -68 29 -21 0 -56
9 -79 19 -35 16 -43 25 -52 64 -14 53 -37 70 -114 86 -69 15 -98 36 -123 90
-11 25 -26 43 -39 46 -12 2 -56 11 -100 19 -100 19 -130 38 -122 76 6 35 -1
41 -83 69 -79 26 -91 26 -91 3z"/>
<path d="M2823 5250 c-114 -23 -220 -108 -271 -218 l-27 -57 0 -1075 0 -1075
33 -67 c40 -82 119 -157 200 -190 l57 -23 780 0 c586 0 790 3 820 12 118 36
220 136 255 249 20 65 20 87 20 1094 0 1003 0 1029 -20 1093 -34 111 -121 200
-235 243 -47 18 -94 19 -810 21 -418 0 -779 -3 -802 -7z m1567 -220 c21 -11
49 -34 62 -52 l23 -33 0 -1045 0 -1045 -24 -34 c-13 -18 -42 -42 -65 -52 -39
-18 -81 -19 -779 -19 -787 0 -777 -1 -830 48 -50 45 -48 0 -47 1103 0 856 3
1035 14 1057 19 36 54 67 91 80 20 7 283 11 773 11 721 1 744 0 782 -19z"/>
<path d="M3025 4766 c-37 -16 -82 -67 -93 -104 -4 -15 -7 -133 -7 -262 0 -268
5 -290 78 -338 l41 -27 541 -3 c386 -1 551 1 576 9 41 14 93 61 109 99 7 18
10 110 8 283 -3 281 -3 280 -72 331 -27 21 -39 21 -589 23 -452 2 -568 0 -592
-11z m1048 -196 c4 0 7 -74 7 -165 l0 -165 -475 0 -475 0 0 164 c0 101 4 166
10 168 7 2 766 1 933 -2z"/>
<path d="M3011 3808 c-96 -66 -113 -183 -37 -263 81 -85 219 -63 274 45 38 74
16 161 -52 212 -47 34 -140 37 -185 6z"/>
<path d="M3534 3820 c-36 -14 -83 -70 -94 -111 -22 -80 14 -158 90 -196 54
-28 92 -29 146 -4 161 73 106 323 -70 320 -28 0 -60 -4 -72 -9z"/>
<path d="M4050 3823 c-37 -14 -74 -49 -91 -87 -17 -37 -19 -69 -19 -310 0
-254 1 -272 21 -313 45 -93 171 -122 254 -58 64 48 66 62 63 385 -3 275 -4
290 -24 317 -37 50 -81 73 -138 72 -28 0 -58 -3 -66 -6z"/>
<path d="M3016 3337 c-114 -65 -121 -210 -14 -290 33 -24 105 -33 151 -18 77
26 131 126 108 201 -33 110 -150 161 -245 107z"/>
<path d="M3535 3347 c-72 -33 -117 -126 -96 -197 40 -136 206 -176 294 -71 91
108 26 265 -115 277 -33 3 -64 -1 -83 -9z"/>
<path d="M4740 4876 c12 -81 61 -128 147 -141 50 -7 83 -34 83 -68 0 -51 76
-107 145 -107 34 0 57 -15 80 -53 7 -12 14 -14 24 -8 12 8 12 14 1 41 -15 36
-55 60 -100 60 -32 0 -90 25 -102 44 -4 6 -8 22 -8 35 0 38 -59 88 -114 96
-57 9 -91 36 -120 95 -29 60 -45 63 -36 6z"/>
</g>
</svg>
