<?xml version="1.0" standalone="no"?>
<!DOCTYPE svg PUBLIC "-//W3C//DTD SVG 20010904//EN"
 "http://www.w3.org/TR/2001/REC-SVG-20010904/DTD/svg10.dtd">
<svg version="1.0" xmlns="http://www.w3.org/2000/svg"
 width="1008.000000pt" height="915.000000pt" viewBox="0 0 1008.000000 915.000000"
 preserveAspectRatio="xMidYMid meet">

<g transform="translate(0.000000,915.000000) scale(0.100000,-0.100000)"
fill="#000000" stroke="none">
<path d="M6239 9048 c-472 -829 -932 -1445 -1421 -1903 l-127 -119 98 -22 c54
-12 127 -34 163 -48 35 -14 69 -26 75 -26 17 0 309 304 447 465 252 294 582
759 821 1155 48 80 93 155 101 168 l15 22 42 -24 c23 -13 150 -82 282 -154
333 -179 1465 -791 1605 -867 154 -83 230 -124 526 -284 138 -75 261 -143 273
-151 l23 -16 -41 -82 c-161 -321 -460 -782 -705 -1087 -691 -863 -1482 -1381
-2321 -1519 -116 -19 -281 -36 -356 -36 l-59 0 0 -150 0 -150 91 0 91 0 44
-48 c75 -84 137 -120 238 -138 147 -25 208 -53 237 -106 5 -9 16 -49 24 -89
19 -92 43 -129 106 -170 82 -52 159 -78 265 -89 96 -9 100 -11 130 -45 17 -19
35 -50 40 -67 13 -45 56 -61 85 -31 26 26 21 56 -21 130 -44 76 -94 103 -215
113 -74 6 -109 15 -164 40 -38 18 -79 42 -91 55 -12 13 -29 57 -41 106 -24
100 -54 149 -111 183 -52 29 -153 61 -228 71 -63 8 -89 21 -145 68 l-39 34 69
7 c231 24 581 120 847 233 l108 46 46 -18 c55 -21 76 -52 99 -147 10 -37 27
-83 39 -101 51 -76 192 -135 345 -144 106 -7 137 -24 164 -91 20 -49 40 -66
72 -58 53 13 41 94 -27 171 -52 59 -81 70 -198 78 -101 7 -158 22 -226 62 -44
26 -51 40 -89 170 -13 45 -28 70 -59 100 l-42 41 110 59 c468 254 978 697
1392 1211 53 65 98 121 99 122 2 2 23 -7 47 -21 24 -13 72 -40 108 -59 149
-81 425 -231 429 -234 7 -6 -157 -311 -245 -455 -619 -1021 -1381 -1735 -2199
-2064 -347 -140 -714 -213 -1075 -214 l-115 -1 3 -151 3 -150 137 2 c142 2
242 10 399 30 l92 11 38 -29 c57 -45 76 -53 169 -69 113 -20 188 -49 217 -84
16 -19 29 -52 36 -96 16 -88 42 -137 94 -175 82 -61 179 -93 305 -103 81 -6
106 -23 140 -94 24 -50 31 -57 56 -57 67 0 61 90 -11 174 -47 56 -85 71 -202
82 -79 7 -109 15 -169 45 -83 41 -96 56 -112 139 -33 165 -115 233 -321 266
-35 5 -72 12 -82 15 -22 7 -12 24 13 24 39 0 333 91 472 145 78 32 205 88 282
126 76 38 148 69 160 69 13 0 39 -15 60 -32 31 -28 40 -45 57 -113 10 -44 28
-91 38 -105 63 -87 221 -150 379 -150 68 0 100 -22 132 -89 27 -59 58 -75 90
-46 26 23 25 39 -4 100 -42 90 -112 135 -209 135 -81 0 -165 19 -229 51 -67
34 -81 52 -101 134 -23 90 -32 110 -72 150 -21 20 -35 38 -33 39 1 2 56 38
122 81 443 290 854 681 1241 1179 61 78 117 151 125 163 l15 23 105 -58 c58
-32 209 -114 335 -182 127 -68 231 -125 233 -126 10 -7 -183 -356 -306 -554
-160 -257 -389 -570 -573 -785 -127 -148 -410 -432 -544 -547 -558 -477 -1144
-749 -1785 -830 -138 -17 -562 -15 -692 4 l-98 14 0 -152 0 -151 38 -6 c313
-49 767 -29 1121 49 555 123 1119 418 1611 843 491 425 946 988 1315 1631 114
199 315 606 303 615 -5 4 -242 132 -563 305 -176 95 -322 174 -323 175 -2 2
39 72 91 157 98 161 229 391 292 518 43 86 135 291 135 301 0 4 -17 16 -37 27
-75 39 -748 404 -751 407 -2 2 32 57 76 122 144 216 272 431 401 677 49 95
161 338 161 352 0 5 -80 52 -177 104 -255 137 -849 458 -1031 557 -35 19 -170
92 -300 162 -131 70 -571 309 -980 530 -409 221 -749 404 -756 407 -9 4 -32
-27 -67 -88z"/>
<path d="M7404 7651 c-29 -15 -65 -37 -80 -48 -48 -34 -184 -100 -274 -133
-47 -17 -164 -64 -260 -104 -218 -91 -243 -99 -284 -92 -45 9 -59 -9 -41 -51
32 -77 90 -80 264 -13 l111 43 82 -36 c78 -33 268 -102 314 -114 l21 -5 -19
-86 c-23 -110 -28 -253 -9 -276 17 -20 51 -21 77 -2 17 13 19 28 21 123 1 86
9 138 38 258 20 83 49 211 65 286 23 110 34 145 59 179 33 46 38 69 19 88 -19
19 -49 14 -104 -17z m-59 -178 c-23 -112 -59 -260 -65 -266 -8 -9 -226 60
-287 91 l-37 20 74 38 c89 45 290 133 307 133 6 1 10 -7 8 -16z"/>
<path d="M7883 7238 c-5 -7 -22 -34 -37 -60 -15 -27 -33 -48 -40 -48 -8 0 -36
15 -63 33 -27 18 -55 31 -61 29 -25 -8 -10 -31 43 -63 30 -18 55 -36 55 -40 0
-3 -16 -26 -35 -50 -19 -24 -35 -52 -35 -61 0 -33 28 -19 64 32 20 28 42 50
48 50 7 0 36 -16 65 -36 32 -22 59 -34 69 -30 25 10 12 28 -49 69 -31 21 -57
41 -57 46 0 4 16 30 35 57 19 27 35 57 35 66 0 21 -23 24 -37 6z"/>
<path d="M5400 7010 c-24 -24 -24 -29 -5 -57 11 -15 62 -37 174 -74 l158 -53
0 -65 c-1 -47 4 -74 17 -93 28 -42 99 -84 199 -117 97 -32 326 -81 380 -81 45
0 54 -9 81 -78 35 -90 62 -128 119 -174 75 -59 123 -80 206 -89 180 -20 236
-58 265 -177 22 -88 47 -127 109 -169 75 -50 151 -74 264 -82 121 -9 142 -20
177 -96 23 -47 31 -55 54 -55 55 0 66 40 31 115 -26 56 -86 110 -136 124 -21
6 -69 11 -106 11 -75 0 -165 26 -227 65 -48 30 -48 31 -71 123 -24 94 -55 143
-112 176 -51 30 -182 66 -240 66 -52 0 -98 23 -162 82 -44 40 -58 62 -80 123
-31 84 -65 121 -118 129 -18 2 -70 10 -116 16 -186 26 -391 93 -423 139 -15
21 -13 53 7 117 15 47 -6 59 -212 128 -109 36 -201 66 -206 66 -4 0 -16 -9
-27 -20z"/>
<path d="M935 6899 c-249 -36 -501 -193 -644 -402 -49 -72 -109 -206 -134
-300 l-22 -82 0 -2595 0 -2595 22 -82 c25 -94 85 -228 134 -300 145 -212 393
-366 649 -402 97 -14 3693 -14 3798 0 104 13 243 61 340 116 97 54 232 177
297 268 58 80 119 210 147 310 l23 80 2 2575 c3 2832 6 2644 -58 2810 -51 134
-113 226 -223 335 -73 73 -124 113 -186 148 -99 55 -238 103 -342 116 -92 12
-3720 12 -3803 0z m3858 -541 c114 -53 211 -175 236 -296 8 -38 11 -760 11
-2550 0 -2712 3 -2543 -55 -2651 -37 -67 -121 -146 -189 -177 -29 -13 -86 -29
-127 -34 -103 -13 -3571 -13 -3664 0 -38 6 -93 21 -122 35 -67 30 -152 110
-188 176 -58 108 -55 -61 -55 2651 0 1811 3 2512 11 2550 31 143 146 271 282
314 34 10 387 12 1922 11 l1880 -2 58 -27z"/>
<path d="M1438 5701 c-31 -10 -72 -28 -91 -39 -55 -35 -136 -127 -165 -189
l-27 -58 0 -625 0 -625 32 -66 c42 -84 118 -161 202 -202 l66 -32 1385 0 1385
0 66 32 c126 62 217 185 239 323 13 87 13 1054 -1 1140 -14 90 -49 160 -110
225 -60 63 -112 96 -188 119 -49 14 -191 16 -1395 15 -1266 0 -1344 -1 -1398
-18z m2582 -498 c0 -49 1 -811 0 -820 0 -10 -243 -13 -1180 -13 l-1180 0 0
420 0 420 1180 0 c649 0 1180 -3 1180 -7z"/>
<path d="M1455 3336 c-142 -45 -244 -146 -290 -285 -28 -85 -18 -217 23 -304
58 -125 174 -212 315 -238 178 -33 370 68 448 235 77 165 51 341 -72 471 -60
63 -112 96 -188 119 -64 19 -180 20 -236 2z"/>
<path d="M2706 3329 c-300 -103 -387 -484 -162 -704 222 -216 585 -133 695
159 37 100 32 223 -14 323 -26 59 -101 144 -157 179 -101 64 -249 82 -362 43z"/>
<path d="M3980 3331 c-73 -23 -125 -57 -183 -120 -58 -62 -92 -133 -106 -221
-14 -83 -13 -1232 0 -1315 14 -85 50 -156 110 -220 88 -93 185 -135 311 -135
212 0 386 154 418 370 11 74 11 1208 0 1291 -28 213 -208 370 -422 368 -41 0
-97 -8 -128 -18z"/>
<path d="M1474 2155 c-126 -30 -232 -115 -286 -232 -57 -121 -50 -284 16 -393
78 -131 216 -210 364 -210 126 0 223 42 311 135 195 207 132 549 -124 669 -94
45 -181 54 -281 31z"/>
<path d="M2745 2156 c-155 -37 -274 -153 -315 -305 -25 -95 -10 -220 37 -315
20 -39 89 -113 139 -146 114 -79 279 -92 407 -33 274 129 336 475 123 688
-102 102 -253 145 -391 111z"/>
<path d="M5665 6043 c2 -16 7 -57 10 -92 7 -85 40 -155 104 -217 69 -68 133
-102 215 -113 102 -15 192 -48 220 -82 14 -16 29 -53 36 -86 26 -131 48 -164
143 -217 78 -43 147 -64 245 -72 42 -3 88 -13 100 -21 13 -8 35 -39 49 -69 27
-60 47 -76 80 -63 49 18 32 104 -36 181 -43 49 -82 65 -180 73 -89 7 -152 26
-225 69 -48 28 -56 43 -82 156 -15 68 -22 80 -68 125 -56 55 -129 84 -260 105
-125 20 -204 94 -250 237 -11 33 -30 63 -52 83 -43 37 -55 38 -49 3z"/>
</g>
</svg>
