<svg xmlns="http://www.w3.org/2000/svg" xmlns:xlink="http://www.w3.org/1999/xlink" viewBox="0 0 24 24"><path d="M10.5 3C9.119 3 8 4.119 8 5.5C8 6.881 9.119 8 10.5 8C10.672 8 10.840906 7.9822187 11.003906 7.9492188C11.015906 6.4442188 11.583719 5.0743437 12.511719 4.0273438C12.056719 3.4063438 11.328 3 10.5 3 z M 17 4C14.791 4 13 5.791 13 8C13 10.209 14.791 12 17 12C19.209 12 21 10.209 21 8C21 5.791 19.209 4 17 4 z M 6 11 A 3 3 0 0 0 5.0859375 11.146484L1 12.107422L1 19.308594L5 18L13.15625 20.853516C13.80825 21.081516 14.526719 21.027172 15.136719 20.701172L21.267578 17.423828C21.938578 17.064828 22.210672 16.243688 21.888672 15.554688C21.555672 14.842688 20.711094 14.531375 19.996094 14.859375L14.085938 17.570312L13.712891 17.082031L14.007812 16.427734C14.462813 15.412734 14.002422 14.219391 12.982422 13.775391L7.2304688 11.267578 A 3 3 0 0 0 7.125 11.220703 A 3 3 0 0 0 6 11 z"/></svg>